<?xml version="1.0" encoding="utf-8"?>
<!-- Generator: Adobe Illustrator 20.1.0, SVG Export Plug-In . SVG Version: 6.00 Build 0)  -->
<svg version="1.1" id="Layer_1" xmlns="http://www.w3.org/2000/svg" xmlns:xlink="http://www.w3.org/1999/xlink" x="0px" y="0px"
	 width="2400px" height="2400px" viewBox="0 0 2400 2400" enable-background="new 0 0 2400 2400" xml:space="preserve">
<g id="WBC_Text__x2B__Colour">
	<g>
		<defs>
			<rect id="SVGID_1_" x="50" y="50" width="2300" height="2300"/>
		</defs>
		<clipPath id="SVGID_2_">
			<use xlink:href="#SVGID_1_"  overflow="visible"/>
		</clipPath>
		<g clip-path="url(#SVGID_2_)">
			<defs>
				<rect id="SVGID_3_" x="50" y="50" width="2300" height="2300"/>
			</defs>
			<clipPath id="SVGID_4_">
				<use xlink:href="#SVGID_3_"  overflow="visible"/>
			</clipPath>
			<path clip-path="url(#SVGID_4_)" fill-rule="evenodd" clip-rule="evenodd" fill="#25408F" d="M2350,1199.9
				c0,635.2-514.9,1150.1-1150.1,1150.1C564.9,2350,50,1835.1,50,1199.9C50,564.8,564.9,50,1199.9,50
				C1835.1,50,2350,564.8,2350,1199.9"/>
			<path clip-path="url(#SVGID_4_)" fill="#FFFFFF" d="M622.8,1633.3c-4.2,4.7-11.9,20.9-9.1,28.5c10.3-5.8,20-9.3,31.3-5.9
				c-7.4,14.3-9.5,33.3-13.2,48.3c-10.2,51.3-18.4,121.1-9.5,171.9c0,0,1.7,8.6,0.6,10.6c-6.2,9.8-10.2,9.2-22.9,11.6
				c9,11,15.8,18.6,30.4,24.8c58.7,30,315.2,62.9,427.5,65.9h24.7c-49-22-174.4-54.6-180.4-60.5l-5.5-13.7
				c-65.9-19.2-141.5-30.8-208.8-30.2c-6.8,6.8-22.6-2.1-32.9-4.8c-13.1-3.9-5.4-8.7-2.7-14.4c53.5-5.5,100.2-0.5,148.9,5
				c8.3-87.2-25.3-191.9,48.8-252.2c-33.5-26.9,7.6-53.6-13.6-85.2c-23.5,4.5-50.7,20.3-88.5,18.5c-14.2,1.3-42.8,4.2-69.2,11.6
				c-14.3,4.4-36.9,12-42.8,24.9l-2.8,11c0,0-2,9.4-2,7.2c0-2.3,16.6-3.8,40.4-12.7c38.2-10.2,84.7-9.4,126-11.1
				c0,0,0.3,5.4-2.3,5.1c-7.5-0.8-12.4,2.1-5.7,14.2c-3.3,4.7-8.2,6.3-13.6,5.6c-20.6,5.4-45.3,0-66,5.4
				c-16.2,2.4-36.9,6.8-51.6,9.2C643.4,1624.5,627.7,1629.7,622.8,1633.3"/>
			<path clip-path="url(#SVGID_4_)" fill="#FFFFFF" d="M1012.2,1593.7c-9,3.5-4.2,22.1-5.5,29c5.5-2.6,12.2-0.8,19.2,2.8
				c73.5,53.5,24.7,148.3,40.5,227.3c42.6,6.9,95.8,9.7,137.8,8.3c1.2-6.8-1.2-11-0.4-19.2c-4.8-69.3,12.3-142,28.2-209.9
				c-47.2-19.2-90-23.9-126.2-29.7c-21.5-4.3-53.3-7.2-71.5-8.5C1024,1592.3,1019.7,1593.7,1012.2,1593.7"/>
			<path clip-path="url(#SVGID_4_)" fill="#FFFFFF" d="M1524.9,666.1c-21,8.3-40.8-6.7-55.5-1.1c-11,13.1-23.1,18.7-37.2,38.1
				c-4.7,22.4-1.6,65.7-5.2,120.8c2,52.9-15.2,299-12.6,327c-0.1,15.3-10.3,241.9-15.5,285.4c0.1,6-19.7,14.6-20.9,24.5
				c16.1,16.1,16.3,21.8,14,33c-3.8,17.5-9,34.2-15.4,43.5c-16.1,6.6-21.3,4.4-40.5-1.2l-13.7-8.8c3.4-10.4,22.7-13.1,30.2-19.2
				c-11.7-5.5-17.7-3.2-27.4-14.9c0-30.4,12-38.8,19.2-73.1c8.2-76.4,15-140.7,16.4-208.7c4.4-34.2,2.7-52.2,8.3-85.2
				c0,0,16.4-322.1,16.4-373.5c1.8-25.1,2.6-45.7,8.6-78.5c18.9-20.1,35.2-33.8,50-39.4c21,5.7,44.9,7,62.5,12.7
				c6,3.4,13.1,5.7,21.3,5.7C1527.9,653.1,1529.9,664.1,1524.9,666.1 M1284,1458.5c-10.3,20-33.6,40.7-52.2,44.1
				c12.4-22-9.6-21.3-16.4-38.5c21.2-211.4,13-425.1,38.4-634.5c4.8-43.3,13-92,13.6-140.1c-24-11.1-54.8-13.7-82.3-8.3
				c-6.7,19.1-1.8,42.1-0.5,54.5c-9.6,191.4-18.2,399.4-38,599.3c-0.6,51.9-19.2,96.8-41.1,140c-13.2,26-46.4,38.2-49.8,41.5
				c-13.3-21.1-24-43.8-24.4-63.6c-4.8-38.2,32.2-621.2,44-681.1c7.5-47.3,18.9-96.2,8.1-145.6c-16.7,1.7-73.5-10.9-96.1-22
				c-2.7-85,8.3-157.3,24.8-230.7c56.2-21.3,122.9-27.5,186.8-22.1c-5.5,32.3-12.4,75.4-13.7,99c-3.5,44.2-9.4,102.8-0.5,140.2
				c24.7,11.1,62.8,13.6,91.1,8.1c2.7-79.4,14.2-160.4,22.7-237c37.8,1,48,6.5,74.6,13.2c16.5,6.9,28.5,9.6,39.9,16.5
				c-5.5,76.3-20.6,147.7-11,226.8c-24.7,9.5-61.2,1.3-74,27.3c6.9,17.4,6.1,37.4,8.1,49.5c-2.1,21.9-3.4,30.9-5.4,46.6
				C1318.4,979.3,1301.9,1221.7,1284,1458.5 M1514.7,1576.2c-28.2-10.9-47-21.8-64-35.4c0-39.2-0.1-63.8-1.3-97.3
				c-1.4-59.7,6.5-181.1,10.1-249.7c11.4-146.4,8.6-239.8,17.6-378.4c4.7-45,3.8-59.1,22.6-98.5c42.4,0,54-5,88.5-16.6
				c5.7-2.2,13.5-3.6,17.2-6l5.4-18.5c6.7-27.8,18.7-195.1,13.7-225.2c-12.4-19.2-22.2-34.7-52.2-43.8l-52.2-14.3l-2.7,69.1
				l0.2,26.9c-2.6,49.3-7.1,82.4-11.9,127l-13.1,2.8c-17.1-20.2-3.4-42-5.5-63.4c4.2-29.9,10.4-157.4,8.2-170.2
				c-45.4-16.3-66.7-22.4-104.3-35.3c-38.1-11.8-68.1-14.1-106.5-21.7c-30.9-5.3-66.2-6.1-105-6.7l-98.7,4.8
				c-26.8,4.5-36.4,3.7-72.9,15.1l-57.7,23.7c-8.3,25.6-7.4,30-11.7,57.9c1.1,27.5-5,49-7.5,90c-3.5,36.5-5.9,92.1-0.2,132.4
				c48,21.3,63.4,23.4,98.4,31.9c-10.1,123.9-59.3,711.2-61.3,773.6c-10.8,34.5-23.8,55.5-52.1,68.6c-9.7,8.9-28.9,7.6-33,19.3
				c65.8,8.4,104,15.7,147.1,19.5c25.6,2.9,40.3,3.7,62.6,5.3c33.4,3,58.8,10.5,97.6,9.1l50.8-4.8c52.3-9.4,113.6-8.5,155.5,20.3
				c9.6,16.5-3.9,26.5,1.6,34.5l-9.8,6.7l5.5,49.3c-5.5,89.9-9.7,150.1-27.5,231.8c35.6,5.5,79.1,10.5,119.8,6.7l0.3,0.1
				c1.4-0.2,2.9-0.3,4.5-0.6c2.5-0.3,5-0.5,7.3-0.7c-0.1-1.2-0.3-2.1-0.4-3c7.3-7.6,14.1-30.1,16.2-99.1c0.2,0.8,0.5,1.5,0.7,2.3
				l10.4-147.9c0.9-1.7,1.2-4.1,0-8.2c-4.2,0.7-11.2-3.9-13.9-6.1c11-12.1,48-10.5,61.9-2.6c-4.8,8.9-11,14.6-11,33.6
				c-4.1,33.2-6.8,150.4-12.1,169.8c2.2,15-10.3,46.9-7.4,70.9c7.2,10.6,102.3,34.2,109.4,30.3c19.9-7.5,19.2-27.4,22-43.9
				c2.6-20.3,1.3-35.3,2.7-48.5c2.4-40.3,5.4-54.2,5.4-78.1c2,3.5,0.2-25.5,2.4-30.1c8.8-8.6,12.7-2.3,16.5-2.8l2.6,7.6
				c1.5,44.7-0.9,109.4-7.7,154.7c-1.4,22.6-20.4,61,5,71.4c6.6-20.1,8.2-29.2,11.6-43.9c9.1-35.1,18.7-77.1,21.9-111.9
				c6.3-70,7.2-96.7,5.9-122.1c1.1-15.8,0.3-17.3-7.3-23.4C1646,1621.6,1552.5,1592.4,1514.7,1576.2"/>
			<path clip-path="url(#SVGID_4_)" fill="#FFFFFF" d="M1045,1920.3c-8.2,7.6-19.4,3.3-17.3,19.1c41.2,24.7,89.5,19.4,127.3,52.5
				l6.6-2.9c41.1-16.5,79.9-36.3,111.5-60.3c13.1-10.2,39.1-8,43.9-25.9h-8.3c-145.6-0.7-275.4-30.8-425.7-27.4v12
				c46.8,11.5,102.2,5.6,150.6,13.8C1058.1,1905.3,1045,1920.3,1045,1920.3"/>
			<path clip-path="url(#SVGID_4_)" fill="#FFFFFF" d="M1501,1983.4c-26.8-6.6-37.5-8.4-41.5-20.3c5.4-9,23.5-0.8,33.3-23.7
				c-38.5,6.1-121.8-2.7-146.9,2.9c-56.8,8.7-73.6,35.1-129.1,49.6c10.2,2.8,16,5.6,30.1,8.2c96.3,8.6,243.2,13.1,357.9-2.7
				c8.1-3.2,15.7-1.4,16.4-11l-68.7-0.2"/>
		</g>
	</g>
</g>
</svg>
