<?xml version="1.0" encoding="utf-8"?>
<!-- Generator: Adobe Illustrator 20.1.0, SVG Export Plug-In . SVG Version: 6.00 Build 0)  -->
<svg version="1.1" id="Layer_1" xmlns="http://www.w3.org/2000/svg" xmlns:xlink="http://www.w3.org/1999/xlink" x="0px" y="0px"
	 width="2400px" height="2400px" viewBox="0 0 2400 2400" enable-background="new 0 0 2400 2400" xml:space="preserve">
<g id="WBC_Text__x2B__Colour">
	<g>
		<defs>
			<rect id="SVGID_1_" x="50.8" y="49.3" width="2298.5" height="2301.5"/>
		</defs>
		<clipPath id="SVGID_2_">
			<use xlink:href="#SVGID_1_"  overflow="visible"/>
		</clipPath>
		<g clip-path="url(#SVGID_2_)">
			<defs>
				<polygon id="SVGID_3_" points="50.8,49.3 50.8,2350.7 2349.2,2350.7 2349.2,49.3 				"/>
			</defs>
			<clipPath id="SVGID_4_">
				<use xlink:href="#SVGID_3_"  overflow="visible"/>
			</clipPath>
			<path clip-path="url(#SVGID_4_)" fill="#28889F" d="M83.2,1476.6c-0.1-0.3-0.1-0.7-0.2-1.1C83.1,1475.9,83.1,1476.3,83.2,1476.6"
				/>
			<path clip-path="url(#SVGID_4_)" fill="#FFFFFF" d="M1276,1736.9c5.3-4.3,11.8-14.3,16.6-19.7c45.4-50.6,687.5-1061,687.5-1061
				c-621.4,42-986.4,62.1-1611.3,2.9c0,0,654,988.3,698.2,1049.7c4.4,6.2,12.8,20.1,17.6,25c5,6.4,30,48.1,30,418.2
				c0,72.3-0.4,137.1-1.3,195.1c28.8,2.2,57.7,3.6,86.9,3.6c25,0,49.8-1.1,74.4-2.6c-1.3-58.3-3.3-123.2-6.7-196.1
				C1268,1834.1,1269.6,1745.7,1276,1736.9 M1102.3,939c75.7-45.4,157.7-70.4,231.3-70.4c48.7,0,90.5,11,121.6,32.2
				c-83.9,26.4-141.9,104.9-193.1,174.4l-1.8,2.4c-25,33.8-48.7,65.6-72.9,88.5c-53.5,50.6-116.3,75.2-191.5,75.2
				c-29,0-60.3-3.7-93.1-11.2C894,1134.4,975.8,1015.1,1102.3,939 M920.4,1342.2c-1.8-3.2-3.5-6.4-4.9-9.7
				c122.2,22.7,220.8-3.2,301.5-79.2c27.8-26.4,53.1-60.6,80.2-97.3c55.2-74.5,112.2-151.5,194.7-164.2l-0.5-3.4l5.9,6.6l-2.8,1.7
				c27.7,46.4,24.4,107.9-9.8,173.4c-34.3,66.1-95.4,127.8-172.3,174.1C1154.2,1439.4,978.4,1438.5,920.4,1342.2"/>
			<path clip-path="url(#SVGID_4_)" fill="#28889F" d="M210.3,1786.8c-5.3-9-10.5-18.2-15.6-27.2
				C199.8,1768.8,205.1,1777.9,210.3,1786.8"/>
			<path clip-path="url(#SVGID_4_)" fill="#008EB3" d="M2272.1,1612.1c3.7-9.5,7.4-19.1,10.8-28.7c2-5.4,3.7-10.7,5.5-16.1
				c4.4-12.9,8.9-25.9,12.7-39c0.4-1.3,0.8-2.6,1.1-4c30.5-103.3,47-212.6,47-325.8c0-634.7-514.7-1149.3-1149.4-1149.3
				c-456.1,0-850,265.6-1035.7,650.5C91.6,850.4,50.8,1019.2,50.8,1197.3c0,604.8,469.5,1101.8,1062.8,1146.3
				c0.7-58.1,1.1-122.9,1.1-195.1c0-369.9-25-411.7-30-418.1c-4.9-4.9-13.2-18.8-17.6-25C1022.9,1643.9,369,656,369,656
				c624.6,59.1,989.7,39,1610.9-2.9c0,0-641.9,1010.2-687.3,1060.7c-4.8,5.4-11.3,15.6-16.6,19.7c-6.4,8.9-7.9,97.4-7.9,415
				c3.4,72.9,5.3,137.9,6.8,196.1c384.4-24.7,718-239,907.8-550.6c0.3-0.5,0.7-1.1,1-1.6c8.7-14.3,17-28.8,25-43.4
				c1.2-2.4,2.6-4.6,3.8-7c6.8-12.7,13.4-25.5,19.7-38.7c2.3-4.2,4.4-8.6,6.5-12.9c5.2-10.8,10-21.7,14.8-32.7
				c2.9-6.8,5.9-13.4,8.7-20.3C2265.6,1629,2268.8,1620.7,2272.1,1612.1"/>
			<path clip-path="url(#SVGID_4_)" fill="#4DC4CF" d="M1187.3,1166.1c24.2-23,47.9-54.7,73-88.5l1.7-2.4
				c51.3-69.5,109.2-148,193.1-174.4c-31-21.2-72.9-32.2-121.6-32.2c-73.6,0-155.6,25-231.2,70.4c-126.5,76.1-208.3,195.4-199.6,291
				c32.8,7.5,64.1,11.2,93.1,11.2C1071,1241.3,1133.8,1216.8,1187.3,1166.1"/>
			<path clip-path="url(#SVGID_4_)" fill="#4DC4CF" d="M1484.8,1170.3c34.2-65.4,37.5-127,9.8-173.4l2.7-1.7l-5.9-6.6l0.5,3.4
				c-82.6,12.6-139.6,89.6-194.8,164c-27.1,36.8-52.4,71-80.2,97.4c-80.8,76-179.4,101.9-301.5,79.2c1.3,3.3,3,6.5,4.9,9.7
				c57.9,96.3,233.8,97.2,392,2.1C1389.3,1298.1,1450.5,1236.4,1484.8,1170.3"/>
			<path clip-path="url(#SVGID_4_)" fill="#4DC4CF" d="M1932.1,605.2c-576.9-190.1-1326.7-36-1536.1,2.6c0,0,465.2-57.8,830.7-58.5
				C1408.2,549.1,1651.6,575.6,1932.1,605.2"/>
		</g>
	</g>
</g>
</svg>
